# cube.obj with materials and documentation
#
mtllib cube-textures.mtl
g cube
# v1 is origin: back lower left (bll)
# v2=fll, v3=bul, v4=ful, v5=blr, v6=flr, v7=
v  0.0  0.0  0.0   v1 = back lower left (origin)
v  0.0  0.0  1.0   v2 = front lower left
v  0.0  1.0  0.0   v3 = back upper left
v  0.0  1.0  1.0   v4 = front upper left
v  1.0  0.0  0.0   v5 = back lower right
v  1.0  0.0  1.0   v6 = front lower right
v  1.0  1.0  0.0   v7 = back upper right
v  1.0  1.0  1.0   v8 = front upper right

vn  0.0  0.0  1.0
vn  0.0  0.0 -1.0
vn  0.0  1.0  0.0
vn  0.0 -1.0  0.0
vn  1.0  0.0  0.0
vn -1.0  0.0  0.0
 
vt 0.0  0.0  # vt=1 is upper left of texture
vt 0.0  1.0  # vt=2 is lower left of texture
vt 0.25 0.0  # vt=3 is upper right of texture1
vt 0.25 1.0  # vt=4 is lower right of texture1
vt 0.50 0.0  # vt=5 is upper right of texture2
vt 0.50 1.0  # vt=6 is lower right of texture2
vt 0.75 0.0  # vt=7 is upper right of texture3
vt 0.75 1.0  # vt=8 is lower right of texture3
vt 1.0  0.0  # vt=9 is upper right of texture
vt 1.0  1.0  # vt=10 is lower right of texture

# remember, syntax is v/vt/vn
g front face in cardboard
usemtl buffy-gray
f  1/1/2  7/4/2  5/3/2
f  1/1/2  3/2/2  7/4/2 
g left face
usemtl buffy-blue
f  1/9/6  4/8/6  3/10/6 
f  1/9/6  2/7/6  4/8/6 
g top face
usemtl buffy-red
f  3/1/3  8/1/3  7/1/3 
f  3/1/3  4/1/3  8/1/3 
g right face
usemtl buffy-green
f  5/3/5  7/4/5  8/6/5 
f  5/3/5  8/6/5  6/5/5 
g bottom face
usemtl buffy-red
f  1/1/4  5/1/4  6/1/4 
f  1/1/4  6/1/4  2/1/4 
g back face in cardboard
usemtl buffy-gray
f  2/7/1  6/5/1  8/6/1 
f  2/7/1  8/6/1  4/8/1 
