####
#
# OBJ File Generated by Meshlab
#
####
# Object earth.obj
#
# Vertices: 132
# Faces: 256
#
####
mtllib ./earth.obj.mtl

vn 0.006651 -6.098670 -1.128001
v 0.000377 -0.477770 -0.083479
vn -1.132375 -5.665047 -2.044794
v -0.074762 -0.456502 -0.148349
vn -1.807049 -5.692483 -0.663571
v -0.127377 -0.470453 -0.049743
vn 0.006223 -6.197963 0.126387
v -0.000000 -0.484500 -0.000000
vn -3.549006 -4.452157 -1.619890
v -0.282915 -0.370700 -0.145170
vn -1.679909 -5.717026 1.007442
v -0.115776 -0.468918 0.074530
vn -0.588157 -5.641546 2.072025
v -0.042241 -0.465580 0.140199
vn 0.980032 -5.626082 1.831415
v 0.071563 -0.466218 0.130389
vn 2.464505 -5.454562 0.435178
v 0.172318 -0.454006 0.043406
vn 1.589067 -5.781839 -0.684968
v 0.103820 -0.474843 -0.045156
vn 1.374660 -5.038017 -2.616032
v 0.083320 -0.437568 -0.211094
vn -0.054250 -4.507933 -3.790898
v -0.012720 -0.394680 -0.292236
vn 2.495667 -1.975031 -4.483524
v 0.210701 -0.189544 -0.407672
vn 3.793269 -3.619821 -1.993826
v 0.336615 -0.322558 -0.166383
vn 5.693997 -0.938678 -0.065043
v 0.482927 -0.077646 -0.002915
vn 5.050616 -0.827955 -2.334715
v 0.446051 -0.062561 -0.205878
vn 4.864718 -0.555900 2.584804
v 0.441766 -0.041599 0.226455
vn 4.214054 1.258097 -3.157448
v 0.395353 0.114928 -0.286662
vn 0.432548 1.636368 5.268171
v 0.035607 0.162606 0.469206
vn -2.594328 0.441830 5.077661
v -0.225905 0.039407 0.435675
vn 3.766055 2.113359 3.785615
v 0.322704 0.184851 0.320479
vn 3.731466 4.020080 1.820349
v 0.309347 0.346457 0.160128
vn 5.146758 2.166332 0.400593
v 0.453619 0.190513 0.046703
vn 1.487551 5.938738 0.125397
v 0.110288 0.474001 0.014459
vn 2.825663 5.031564 0.848495
v 0.225398 0.432232 0.067065
vn 0.001592 6.205545 0.100522
v 0.000000 0.484500 -0.000000
vn 0.729838 5.598582 1.983215
v 0.049316 0.465621 0.142435
vn -1.345012 4.989952 2.963322
v -0.117926 0.415394 0.226298
vn 1.344277 4.068333 3.763230
v 0.119057 0.355235 0.321983
vn -2.238989 2.964226 4.259578
v -0.193819 0.257593 0.377556
vn -0.948168 5.901845 1.309537
v -0.065410 0.472569 0.095374
vn -0.027402 6.130635 -1.036648
v 0.001082 0.478262 -0.079921
vn -1.330607 5.485995 -2.110635
v -0.100848 0.449505 -0.160400
vn -1.289153 5.964838 -0.753853
v -0.086217 0.475046 -0.055200
vn -1.981000 5.702097 0.257669
v -0.137766 0.467431 0.020527
vn 0.455084 0.653094 -5.489523
v 0.027401 0.064250 -0.492583
vn -3.292295 1.922039 -4.247520
v -0.264401 0.186753 -0.370371
vn -2.754858 -0.419421 -5.007162
v -0.216330 -0.054513 -0.435578
vn -5.174226 0.502472 -1.542466
v -0.479790 0.059653 -0.143279
vn -4.022822 -1.867339 3.507658
v -0.341763 -0.167059 0.317593
vn -3.635848 -2.853107 -3.680334
v -0.299087 -0.252517 -0.294916
vn -4.809159 -1.817134 -2.332649
v -0.423406 -0.167198 -0.196830
vn -3.880273 -4.364949 0.576138
v -0.313739 -0.370997 0.045897
vn -5.102734 -2.056145 0.828089
v -0.452793 -0.192116 0.068445
vn -2.749266 -4.343030 2.769367
v -0.225675 -0.370355 0.225189
vn -1.270907 -1.999301 5.012878
v -0.132985 -0.192531 0.441276
vn 0.324374 -3.686130 4.167648
v 0.015933 -0.336526 0.366879
vn -4.809623 1.262869 2.312970
v -0.429939 0.113718 0.220334
vn -4.755950 2.628684 -1.355809
v -0.425970 0.224841 -0.134661
vn -3.537498 4.139320 1.672369
v -0.286285 0.375381 0.147290
vn -3.590575 4.298064 -1.278311
v -0.310734 0.369064 -0.112145
vn 1.436367 5.822954 -1.092001
v 0.093708 0.471317 -0.080852
vn 0.232253 5.600999 -2.432355
v 0.021909 0.455422 -0.167748
vn 1.702329 4.747852 -3.166105
v 0.133025 0.394934 -0.256218
vn 0.365459 3.828757 -4.439767
v 0.031430 0.323774 -0.368985
vn -1.976963 4.580450 -3.264102
v -0.154684 0.378262 -0.266041
vn -1.500634 3.820852 -4.501053
v -0.114092 0.306989 -0.358854
vn 3.518156 4.147939 -1.626313
v 0.287514 0.376465 -0.144488
vn 2.540285 2.100062 -4.623420
v 0.208372 0.208921 -0.393720
vn -1.672492 1.704179 -5.376182
v -0.136776 0.191009 -0.425687
vn 0.046487 -2.275282 -5.338403
v -0.003836 -0.192294 -0.453018
vn -1.974413 -4.440201 -3.501875
v -0.162947 -0.363241 -0.282523
vn 4.407669 -3.566824 0.627994
v 0.371855 -0.320207 0.057203
vn 2.996502 -3.640252 2.961389
v 0.264805 -0.343154 0.246317
vn 2.374425 -0.639591 4.876657
v 0.226605 -0.041673 0.440381
vn -1.605734 -2.830554 -4.937439
v -0.133856 -0.223057 -0.414269
vn -0.012806 -6.099470 -1.137417
v 0.000345 -0.468411 -0.081800
vn -1.130420 -5.665407 -2.044774
v -0.073150 -0.447562 -0.145489
vn -1.809195 -5.691446 -0.665236
v -0.125100 -0.461149 -0.048892
vn -0.080883 -6.210133 0.091712
v -0.000000 -0.475000 -0.000000
vn -3.549510 -4.451824 -1.619857
v -0.277391 -0.363416 -0.142313
vn -1.680505 -5.716736 1.007594
v -0.113618 -0.459682 0.073133
vn -0.622016 -5.660802 2.036734
v -0.041446 -0.456389 0.137638
vn 1.162751 -5.431728 2.292155
v 0.075165 -0.439843 0.172357
vn 2.558032 -5.371356 -0.290686
v 0.185264 -0.440689 -0.030635
vn 1.278441 -5.876009 0.926781
v 0.078658 -0.466600 0.064489
vn 1.327697 -5.044081 -2.670910
v 0.081755 -0.428929 -0.207029
vn -0.057714 -4.507186 -3.791469
v -0.012775 -0.386883 -0.286578
vn 2.529645 -2.069131 -4.471504
v 0.206547 -0.185816 -0.399693
vn 3.854333 -3.572969 -2.060116
v 0.330028 -0.316203 -0.163141
vn 5.694074 -0.938776 -0.064598
v 0.473460 -0.076102 -0.002818
vn 5.050770 -0.828385 -2.334309
v 0.437323 -0.061374 -0.201781
vn 4.864751 -0.555453 2.584965
v 0.433109 -0.040725 0.222009
vn 4.279740 1.257216 -3.121669
v 0.387623 0.112672 -0.281004
vn 0.432941 1.636411 5.268265
v 0.034977 0.159430 0.459992
vn -2.594057 0.442091 5.077768
v -0.221453 0.038599 0.427146
vn 3.766087 2.113802 3.785448
v 0.316363 0.181266 0.314185
vn 3.731723 4.019948 1.819403
v 0.303287 0.339663 0.156971
vn 5.128235 2.184281 0.381707
v 0.444748 0.186717 0.045783
vn 1.495168 5.923714 0.043815
v 0.108227 0.464683 0.014261
vn 2.848095 5.007438 0.810322
v 0.220931 0.423764 0.065839
vn 0.005641 6.206357 0.108898
v 0.000000 0.475000 0.000000
vn 0.729801 5.597952 1.984780
v 0.048368 0.456436 0.139812
vn -1.345318 4.989594 2.964084
v -0.115627 0.407221 0.221905
vn 1.344218 4.068076 3.763868
v 0.116700 0.348226 0.315719
vn -2.238925 2.964159 4.259625
v -0.189998 0.252558 0.370148
vn -0.948650 5.901525 1.310240
v -0.064217 0.463276 0.093576
vn -0.258181 6.131807 -1.047049
v -0.022962 0.469152 -0.070670
vn -1.281291 5.533327 -2.031015
v -0.098781 0.440676 -0.157355
vn -1.322750 5.965197 -0.738763
v -0.084618 0.465700 -0.054228
vn -1.981122 5.702139 0.257252
v -0.135078 0.458263 0.020119
vn -1.775384 0.619036 -5.759185
v -0.144976 0.074306 -0.446190
vn -3.389663 2.030354 -4.182217
v -0.259258 0.183133 -0.363056
vn -2.767974 -0.575625 -5.016948
v -0.211914 -0.053357 -0.427137
vn -5.174731 0.500853 -1.542515
v -0.470417 0.058344 -0.140400
vn -4.023873 -1.866776 3.507002
v -0.335149 -0.163717 0.311298
vn -3.636040 -2.852455 -3.680114
v -0.293189 -0.247611 -0.289127
vn -4.809303 -1.816748 -2.332396
v -0.415177 -0.163850 -0.192860
vn -3.880887 -4.364335 0.576729
v -0.307605 -0.363700 0.045041
vn -5.103011 -2.055945 0.828504
v -0.443935 -0.188282 0.067132
vn -2.749572 -4.342617 2.769885
v -0.221251 -0.363080 0.220792
vn -1.272549 -1.998387 5.012812
v -0.130567 -0.188625 0.432623
vn 0.301123 -3.663506 4.212795
v 0.015593 -0.329856 0.359743
vn -4.809551 1.263491 2.313092
v -0.421510 0.111518 0.215990
vn -4.757795 2.625721 -1.355375
v -0.417826 0.220053 -0.131983
vn -3.537587 4.139506 1.672015
v -0.280655 0.368039 0.144366
vn -3.591931 4.296526 -1.278007
v -0.304721 0.361755 -0.109940
vn 0.976153 5.768505 -1.481157
v 0.062222 0.464167 -0.096833
vn 0.660768 4.370142 -3.731184
v 0.042974 0.370431 -0.309039
vn -2.132311 4.563186 -3.268101
v -0.151640 0.370862 -0.260808
vn -1.438015 3.779393 -4.539522
v -0.111894 0.300937 -0.351832
vn 3.247166 4.162066 -1.877111
v 0.268375 0.370774 -0.167580
vn 1.084124 0.369695 -5.598645
v 0.077655 0.036499 -0.474263
vn -0.703583 2.199899 -5.423056
v -0.077266 0.174910 -0.442131
vn 2.400378 2.325877 -4.642083
v 0.204381 0.204781 -0.385972
vn 0.004582 -2.236840 -5.343586
v -0.003692 -0.188453 -0.444165
vn -1.975469 -4.440334 -3.501296
v -0.159806 -0.356121 -0.276946
vn 1.073807 -6.037642 -0.713546
v 0.079125 -0.467413 -0.049498
vn 4.405049 -3.565403 0.681675
v 0.364562 -0.313927 0.056068
vn 3.016460 -3.653507 2.897735
v 0.259669 -0.336371 0.241489
vn 2.374188 -0.639219 4.876788
v 0.222141 -0.040793 0.431760
vn -1.605774 -2.830718 -4.937064
v -0.131271 -0.218662 -0.406144
# 132 vertices, 0 vertices normals


usemtl material_0
vt 0.033656 0.232786
vt -0.001270 0.168109
vt 0.021530 0.109668
f 62/1/62 12/2/12 2/3/2
vt 0.000031 0.050293
vt 0.142363 0.088253
f 1/4/1 3/5/3 2/3/2
vt 0.075571 0.326000
vt 0.124550 0.224024
f 41/6/41 62/1/62 5/7/5
f 5/7/5 62/1/62 2/3/2
f 5/7/5 2/3/2 3/5/3
vt 0.459296 0.260604
vt 0.397734 0.095895
vt 0.523475 0.096095
f 47/8/47 7/9/7 8/10/8
vt 0.324439 0.224350
f 47/8/47 45/11/45 7/9/7
vt 0.285527 0.090218
f 45/11/45 6/12/6 7/9/7
vt 0.578272 0.257145
f 8/10/8 64/13/64 47/8/47
vt 0.661275 0.116701
f 8/10/8 9/14/9 64/13/64
vt 0.767453 0.071856
f 8/10/8 10/15/10 9/14/9
vt 0.948166 0.053246
vt 0.882367 0.148692
f 10/15/10 1/16/1 11/17/11
vt 0.957745 0.200041
vt 0.873958 0.374387
f 11/17/11 12/18/12 13/19/13
vt 0.774074 0.272744
f 13/19/13 14/20/14 11/17/11
vt 0.700547 0.449716
vt 0.674881 0.274064
f 14/20/14 15/21/15 63/22/63
vt 0.624503 0.473690
f 15/21/15 17/23/17 63/22/63
vt 0.768344 0.459279
f 15/21/15 14/20/14 16/24/16
f 13/19/13 16/24/16 14/20/14
vt 0.800531 0.575304
f 13/19/13 18/25/18 16/24/16
vt 0.940891 0.541807
f 36/26/36 18/25/18 13/19/13
vt 0.682969 0.626981
f 16/24/16 23/27/23 15/21/15
f 17/23/17 15/21/15 23/27/23
f 18/25/18 23/27/23 16/24/16
vt 0.574884 0.624462
f 21/28/21 17/23/17 23/27/23
vt 0.525539 0.473632
f 17/23/17 21/28/21 65/29/65
vt 0.462454 0.607120
f 21/28/21 19/30/19 65/29/65
vt 0.507529 0.759371
f 19/30/19 21/28/21 29/31/29
vt 0.623924 0.751041
f 29/31/29 21/28/21 22/32/22
f 23/27/23 22/32/22 21/28/21
vt 0.659858 0.845046
f 22/32/22 23/27/23 25/33/25
vt 0.774835 0.776702
vt 0.683846 0.930398
f 58/34/58 24/35/24 25/33/25
vt 0.501212 0.902865
f 24/35/24 27/36/27 25/33/25
vt 0.351881 0.925771
vt 0.374162 0.826180
f 27/36/27 31/37/31 28/38/28
f 28/38/28 29/31/29 27/36/27
vt 0.374454 0.675528
f 30/39/30 19/30/19 29/31/29
f 29/31/29 28/38/28 30/39/30
vt 0.275549 0.776273
f 28/38/28 31/37/31 50/40/50
vt 0.219715 0.908997
f 35/41/35 50/40/50 31/37/31
vt 0.000031 0.950012
vt 0.039923 0.875098
vt 0.112561 0.933341
f 32/42/32 33/43/33 34/44/34
vt 0.143472 0.770757
f 35/41/35 34/44/34 51/45/51
f 51/45/51 34/44/34 33/43/33
vt -0.000216 0.717281
vt 0.048859 0.624265
vt 0.034085 0.782974
f 57/46/57 37/47/37 56/48/56
f 51/45/51 56/48/56 37/47/37
vt 0.149300 0.650988
f 37/47/37 49/49/49 51/45/51
vt -0.000216 0.628695
f 37/47/37 57/46/57 60/50/60
vt 0.153705 0.538720
f 37/47/37 39/51/39 49/49/49
vt 0.000031 0.550049
vt 0.021274 0.465269
f 37/47/37 36/52/36 38/53/38
f 39/51/39 37/47/37 38/53/38
vt 0.130298 0.390142
f 39/51/39 38/53/38 42/54/42
vt 0.224273 0.372909
f 39/51/39 42/54/42 44/55/44
f 42/54/42 38/53/38 41/6/41
f 42/54/42 41/6/41 5/7/5
f 44/55/44 42/54/42 5/7/5
vt 0.224172 0.223710
f 44/55/44 5/7/5 43/56/43
f 3/5/3 43/56/43 5/7/5
f 45/11/45 44/55/44 43/56/43
vt 0.318971 0.390266
f 44/55/44 45/11/45 40/57/40
vt 0.403824 0.372282
f 45/11/45 47/8/47 46/58/46
f 40/57/40 45/11/45 46/58/46
f 43/56/43 6/12/6 45/11/45
f 3/5/3 6/12/6 43/56/43
f 46/58/46 47/8/47 65/29/65
vt 0.275364 0.574607
f 40/57/40 48/59/48 44/55/44
vt 0.373942 0.525806
f 20/60/20 40/57/40 46/58/46
f 20/60/20 48/59/48 40/57/40
f 39/51/39 44/55/44 48/59/48
f 48/59/48 20/60/20 30/39/30
f 19/30/19 30/39/30 20/60/20
f 30/39/30 50/40/50 48/59/48
f 50/40/50 49/49/49 48/59/48
f 50/40/50 51/45/51 49/49/49
f 50/40/50 30/39/30 28/38/28
f 51/45/51 33/43/33 56/48/56
f 50/40/50 35/41/35 51/45/51
f 48/59/48 49/49/49 39/51/39
vt 0.818169 0.919333
vt 0.930741 0.887284
vt 0.951090 0.948532
f 52/61/52 53/62/53 32/63/32
vt 0.872533 0.800834
f 53/62/53 52/61/52 54/64/54
f 58/34/58 54/64/54 52/61/52
vt 0.934795 0.729371
vt 0.999638 0.871037
f 55/65/55 33/66/33 53/62/53
f 54/64/54 55/65/55 53/62/53
vt 1.000000 0.800049
f 33/66/33 55/65/55 56/67/56
vt 0.999732 0.727495
f 56/67/56 55/65/55 57/68/57
f 58/34/58 23/27/23 18/25/18
vt 0.872018 0.640899
f 58/34/58 59/69/59 54/64/54
f 55/65/55 54/64/54 59/69/59
f 59/69/59 58/34/58 18/25/18
f 59/69/59 36/26/36 55/65/55
vt 1.000514 0.466609
vt 0.950900 0.373049
f 38/70/38 36/26/36 61/71/61
f 36/26/36 13/19/13 61/71/61
f 36/26/36 59/69/59 18/25/18
vt 1.000000 0.250000
f 62/72/62 61/71/61 12/18/12
f 61/71/61 13/19/13 12/18/12
f 64/13/64 65/29/65 47/8/47
f 17/23/17 64/13/64 63/22/63
f 17/23/17 65/29/65 64/13/64
f 65/29/65 19/30/19 46/58/46
f 19/30/19 20/60/20 46/58/46
vt -0.000257 0.349983
f 66/73/66 41/6/41 38/53/38
f 66/73/66 62/1/62 41/6/41
f 27/36/27 22/32/22 25/33/25
f 22/32/22 27/36/27 29/31/29
f 14/20/14 10/15/10 11/17/11
f 14/20/14 9/14/9 10/15/10
f 14/20/14 63/22/63 9/14/9
f 64/13/64 9/14/9 63/22/63
f 58/34/58 25/33/25 23/27/23
f 24/35/24 58/34/58 52/61/52
vt 0.024994 0.000000
f 3/5/3 1/4/1 4/74/4
vt 0.224976 0.000000
f 6/12/6 3/5/3 4/75/4
vt 0.375000 0.000000
f 7/9/7 6/12/6 4/76/4
vt 0.474854 0.000000
f 8/10/8 7/9/7 4/77/4
vt 0.625000 0.000000
f 10/15/10 8/10/8 4/78/4
vt 1.000000 0.100098
f 11/17/11 1/16/1 2/79/2
f 11/17/11 2/79/2 12/18/12
vt 0.724609 0.999969
f 24/35/24 52/61/52 26/80/26
vt 0.574707 0.999969
f 27/36/27 24/35/24 26/81/26
vt 0.424805 0.999969
f 31/37/31 27/36/27 26/82/26
vt 0.024994 0.999969
f 32/42/32 34/44/34 26/83/26
vt 0.274902 0.999969
f 35/41/35 31/37/31 26/84/26
vt 0.174927 0.999969
f 34/44/34 35/41/35 26/85/26
f 37/47/37 60/50/60 36/52/36
vt 0.875000 0.999969
f 52/61/52 32/63/32 26/86/26
f 32/63/32 53/62/53 33/66/33
vt 0.999745 0.618524
f 57/68/57 55/65/55 60/87/60
f 60/87/60 55/65/55 36/26/36
vt 1.000039 0.349976
f 61/71/61 66/88/66 38/70/38
f 61/71/61 62/72/62 66/88/66
vt 0.875000 0.000000
f 1/16/1 10/15/10 4/89/4

usemtl material_1
vt 0.033685 0.232785
vt -0.001260 0.168059
vt 0.021440 0.109644
f 127/90/127 78/91/78 68/92/68
vt 0.142322 0.088402
f 67/4/67 69/93/69 68/92/68
vt 0.075564 0.325969
vt 0.124559 0.224038
f 107/94/107 127/90/127 71/95/71
f 71/95/71 127/90/127 68/92/68
f 71/95/71 68/92/68 69/93/69
vt 0.459282 0.260663
vt 0.397759 0.096010
vt 0.512494 0.126447
f 113/96/113 73/97/73 74/98/74
vt 0.324446 0.224362
f 113/96/113 111/99/111 73/97/73
vt 0.285528 0.090297
f 111/99/111 72/100/72 73/97/73
vt 0.594330 0.065040
f 73/97/73 76/101/76 74/98/74
vt 0.578294 0.257190
f 74/98/74 130/102/130 113/96/113
vt 0.722099 0.123784
f 130/102/130 76/101/76 75/103/75
f 74/98/74 76/101/76 130/102/130
vt 0.791935 0.059589
f 75/103/75 76/101/76 128/104/128
vt 0.882364 0.148768
f 77/105/77 75/103/75 128/104/128
vt 0.948193 0.053216
f 128/104/128 67/106/67 77/105/77
vt 0.957882 0.200076
vt 0.873967 0.374394
f 77/105/77 78/107/78 79/108/79
vt 0.774079 0.272768
f 79/108/79 80/109/80 77/105/77
vt 0.700535 0.449728
vt 0.674887 0.274065
f 80/109/80 81/110/81 129/111/129
vt 0.624505 0.473724
f 81/110/81 83/112/83 129/111/129
vt 0.768325 0.459255
f 81/110/81 80/109/80 82/113/82
f 79/108/79 82/113/82 80/109/80
vt 0.800518 0.575302
f 79/108/79 84/114/84 82/113/82
vt 0.924042 0.524719
f 123/115/123 84/114/84 79/108/79
vt 0.682972 0.626942
f 82/113/82 89/116/89 81/110/81
f 83/112/83 81/110/81 89/116/89
f 84/114/84 89/116/89 82/113/82
vt 0.574884 0.624487
f 87/117/87 83/112/83 89/116/89
vt 0.525531 0.473668
f 83/112/83 87/117/87 131/118/131
vt 0.462476 0.607128
f 87/117/87 85/119/85 131/118/131
vt 0.507514 0.759334
f 85/119/85 87/117/87 95/120/95
vt 0.623931 0.751040
f 95/120/95 87/117/87 88/121/88
f 89/116/89 88/121/88 87/117/87
vt 0.659786 0.845053
f 88/121/88 89/116/89 91/122/91
vt 0.789396 0.779067
vt 0.683769 0.930342
f 122/123/122 90/124/90 91/122/91
vt 0.501185 0.902768
f 90/124/90 93/125/93 91/122/91
vt 0.351848 0.925710
vt 0.374162 0.826148
f 93/125/93 97/126/97 94/127/94
f 94/127/94 95/120/95 93/125/93
vt 0.374459 0.675539
f 96/128/96 85/119/85 95/120/95
f 95/120/95 94/127/94 96/128/96
vt 0.275537 0.776291
f 94/127/94 97/126/97 116/129/116
vt 0.219707 0.908990
f 101/130/101 116/129/116 97/126/97
vt 0.039830 0.875086
vt 0.112508 0.933263
f 98/42/98 99/131/99 100/132/100
vt 0.143488 0.770695
f 101/130/101 100/132/100 117/133/117
f 117/133/117 100/132/100 99/131/99
vt -0.000209 0.717266
vt 0.048879 0.624292
vt 0.034083 0.782989
f 121/134/121 103/135/103 120/136/120
f 117/133/117 120/136/120 103/135/103
vt 0.149333 0.650742
f 103/135/103 11